<svg width="20" height="20" viewBox="0 0 20 20" fill="none" xmlns="http://www.w3.org/2000/svg">
<path d="M17.1163 3.98214H15.5407V2.3733C15.5407 1.94321 15.1975 1.59277 14.7763 1.59277H14.7529C14.3239 1.59277 13.9807 1.94321 13.9807 2.3733V3.98214H12.4129C11.9917 3.98214 11.6485 4.33258 11.6407 4.76267V4.78656C11.6407 5.22461 11.9839 5.57505 12.4129 5.57505H13.9807V7.17593C13.9807 7.60601 14.3239 7.96442 14.7529 7.95645H14.7763C15.1975 7.95645 15.5407 7.60601 15.5407 7.17593V5.57505H17.1163C17.5375 5.57505 17.8807 5.22461 17.8807 4.79452V4.76267C17.8807 4.33258 17.5375 3.98214 17.1163 3.98214ZM13.2007 7.17593V6.37151H12.4129C11.9995 6.37151 11.6095 6.20425 11.3131 5.90956C11.0245 5.60691 10.8607 5.20868 10.8607 4.76267C10.8607 4.47594 10.9387 4.21311 11.0713 3.98214H4.62081C3.76281 3.98214 3.06082 4.69895 3.06082 5.57505V15.1325C3.06082 16.0086 3.76281 16.7254 4.62081 16.7254H13.9807C14.8387 16.7254 15.5407 16.0086 15.5407 15.1325V8.53787C15.3067 8.67326 15.0415 8.76087 14.7451 8.76087C13.8949 8.75291 13.2007 8.04406 13.2007 7.17593ZM13.1695 15.1325H5.4008C5.081 15.1325 4.8938 14.7582 5.0888 14.4954L6.63319 12.4007C6.79699 12.1777 7.11678 12.1936 7.27278 12.4166L8.52077 14.3361L10.5566 11.5644C10.7125 11.3573 11.0167 11.3494 11.1727 11.5564L13.4737 14.4874C13.6765 14.7502 13.4971 15.1325 13.1695 15.1325Z" fill="#646464"/>
</svg>
