<svg width="19" height="20" viewBox="0 0 19 20" fill="none" xmlns="http://www.w3.org/2000/svg">
<path d="M12.87 5.37583V13.8023C12.87 15.4669 11.6766 16.9483 10.0542 17.1076C8.19 17.2908 6.63001 15.8014 6.63001 13.9377V4.09354C6.63001 3.05018 7.3632 2.1024 8.37719 1.99886C9.54718 1.87939 10.53 2.81125 10.53 3.98204V12.3448C10.53 12.7829 10.179 13.1413 9.74998 13.1413C9.32099 13.1413 8.96999 12.7829 8.96999 12.3448V5.37583C8.96999 5.04929 8.70479 4.77849 8.38499 4.77849C8.0652 4.77849 7.8 5.04929 7.8 5.37583V12.2333C7.8 13.2767 8.53319 14.2245 9.54718 14.328C10.7172 14.4475 11.7 13.5156 11.7 12.3448V4.11743C11.7 2.45284 10.5066 0.971434 8.88419 0.812143C7.02781 0.628958 5.46002 2.11833 5.46002 3.98204V13.7545C5.46002 16.0404 7.09801 18.0873 9.32879 18.3023C11.895 18.5412 14.0399 16.5023 14.0399 13.9377V5.37583C14.0399 5.04929 13.7747 4.77849 13.4549 4.77849C13.1351 4.77849 12.87 5.04929 12.87 5.37583Z" fill="#646464"/>
</svg>
