<svg width="17" height="16" viewBox="0 0 17 16" fill="none" xmlns="http://www.w3.org/2000/svg">
<path d="M3.36842 1.60004C2.92174 1.60004 2.49336 1.76862 2.1775 2.06868C1.86165 2.36875 1.68421 2.77573 1.68421 3.20008V9.60025C1.68421 10.0246 1.86165 10.4316 2.1775 10.7316C2.49336 11.0317 2.92174 11.2003 3.36842 11.2003H4.21053C4.43387 11.2003 4.64806 11.2846 4.80598 11.4346C4.96391 11.5846 5.05263 11.7881 5.05263 12.0003V13.706L8.79663 11.3347C8.93479 11.2472 9.0971 11.2004 9.26316 11.2003H13.4737C13.9204 11.2003 14.3488 11.0317 14.6646 10.7316C14.9805 10.4316 15.1579 10.0246 15.1579 9.60025V3.20008C15.1579 2.77573 14.9805 2.36875 14.6646 2.06868C14.3488 1.76862 13.9204 1.60004 13.4737 1.60004H3.36842ZM0 3.20008C0 2.35137 0.354886 1.53741 0.986588 0.937283C1.61829 0.337151 2.47506 0 3.36842 0H13.4737C14.367 0 15.2238 0.337151 15.8555 0.937283C16.4872 1.53741 16.8421 2.35137 16.8421 3.20008V9.60025C16.8421 10.449 16.4872 11.2629 15.8555 11.863C15.2238 12.4632 14.367 12.8003 13.4737 12.8003H9.51747L4.67705 15.866C4.55024 15.9462 4.40291 15.9922 4.25076 15.9991C4.09861 16.006 3.94734 15.9736 3.81305 15.9053C3.67876 15.837 3.56649 15.7353 3.48819 15.6112C3.40989 15.4871 3.3685 15.3451 3.36842 15.2004V12.8003C2.47506 12.8003 1.61829 12.4632 0.986588 11.863C0.354886 11.2629 0 10.449 0 9.60025V3.20008Z" fill="#5C6A80"/>
</svg>
