<svg width="26" height="27" viewBox="0 0 26 27" fill="none" xmlns="http://www.w3.org/2000/svg">
<path d="M12.3654 1.48633H7.69162C3.84787 1.48633 1.43787 4.20758 1.43787 8.06008V18.4526C1.43787 22.3051 3.83662 25.0263 7.69162 25.0263H18.7216C22.5779 25.0263 24.9766 22.3051 24.9766 18.4526V13.4176" stroke="#79828D" stroke-width="2" stroke-linecap="round" stroke-linejoin="round"/>
<path fill-rule="evenodd" clip-rule="evenodd" d="M9.03479 11.6511L18.376 2.30986C19.5398 1.14736 21.426 1.14736 22.5898 2.30986L24.111 3.83111C25.2748 4.99486 25.2748 6.88236 24.111 8.04486L14.7248 17.4311C14.216 17.9399 13.526 18.2261 12.806 18.2261H8.12354L8.24104 13.5011C8.25854 12.8061 8.54229 12.1436 9.03479 11.6511Z" stroke="#79828D" stroke-width="2" stroke-linecap="round" stroke-linejoin="round"/>
<path d="M16.9565 3.75293L22.664 9.46043" stroke="#79828D" stroke-width="2" stroke-linecap="round" stroke-linejoin="round"/>
</svg>
