<svg width="64" height="64" viewBox="0 0 64 64" fill="none" xmlns="http://www.w3.org/2000/svg">
<g filter="url(#filter0_d)">
<circle cx="32" cy="28" r="21" fill="url(#paint0_linear)"/>
</g>
<path d="M30.0735 37.1668C31.7078 37.1668 32.9731 37.0159 33.9881 36.7073C33.9666 36.5959 33.9522 36.482 33.9522 36.3647C33.9522 35.8409 34.1778 35.368 34.5386 35.0279C34.1778 34.6879 33.9522 34.215 33.9522 33.6911C33.9522 33.1673 34.1778 32.6944 34.5386 32.3543C34.1778 32.0143 33.9522 31.5414 33.9522 31.0175C33.9522 30.4937 34.1778 30.0208 34.5386 29.6807C34.1778 29.3407 33.9522 28.8678 33.9522 28.3439C33.9522 27.7251 34.2688 27.1796 34.75 26.8388C34.4204 26.5476 34.0683 26.2866 33.6989 26.057C33.849 25.8746 33.9522 25.6539 33.9522 25.4029C33.9522 24.8122 33.4561 24.3335 32.844 24.3335H27.303C26.6909 24.3335 26.1948 24.8122 26.1948 25.4029C26.1948 25.6533 26.2977 25.8733 26.4469 26.0555C24.2958 27.3928 22.8333 29.8145 22.8333 32.3543C22.8333 36.6682 26.9811 37.1668 30.0735 37.1668ZM30.0676 31.9763C29.1509 31.9763 28.4053 31.2568 28.4053 30.3721C28.4053 29.6738 28.8728 29.0846 29.5194 28.8647V28.0766C29.5194 27.7811 29.7673 27.5418 30.0735 27.5418C30.3797 27.5418 30.6276 27.7811 30.6276 28.0766V28.8683C31.2681 29.0913 31.7299 29.6781 31.7299 30.3721C31.7299 30.6677 31.482 30.9068 31.1758 30.9068C30.8694 30.9068 30.6217 30.6677 30.6217 30.3721C30.6217 30.077 30.3732 29.8374 30.0676 29.8374C29.7618 29.8374 29.5135 30.077 29.5135 30.3721C29.5135 30.6672 29.7618 30.9068 30.0676 30.9068C30.9841 30.9068 31.7299 31.6265 31.7299 32.511C31.7299 33.205 31.2681 33.7918 30.6276 34.0149V34.4932C30.6276 34.7887 30.3797 35.0279 30.0735 35.0279C29.7673 35.0279 29.5194 34.7887 29.5194 34.4932V34.0184C28.8728 33.7986 28.4053 33.2093 28.4053 32.511C28.4053 32.2155 28.653 31.9763 28.9594 31.9763C29.2656 31.9763 29.5135 32.2155 29.5135 32.511C29.5135 32.8061 29.7618 33.0457 30.0676 33.0457C30.3732 33.0457 30.6217 32.8061 30.6217 32.511C30.6217 32.2159 30.3732 31.9763 30.0676 31.9763Z" fill="white"/>
<path d="M40.483 35.3335H36.3504C35.9728 35.3335 35.6667 35.7439 35.6667 36.2502C35.6667 36.7564 35.9728 37.1668 36.3504 37.1668H40.483C40.8606 37.1668 41.1667 36.7564 41.1667 36.2502C41.1667 35.7439 40.8606 35.3335 40.483 35.3335Z" fill="white"/>
<path d="M40.483 32.5835H36.3504C35.9728 32.5835 35.6667 32.9939 35.6667 33.5002C35.6667 34.0064 35.9728 34.4168 36.3504 34.4168H40.483C40.8606 34.4168 41.1667 34.0064 41.1667 33.5002C41.1667 32.9939 40.8606 32.5835 40.483 32.5835Z" fill="white"/>
<path d="M40.483 29.8335H36.3504C35.9728 29.8335 35.6667 30.2439 35.6667 30.7502C35.6667 31.2564 35.9728 31.6668 36.3504 31.6668H40.483C40.8606 31.6668 41.1667 31.2564 41.1667 30.7502C41.1667 30.2439 40.8606 29.8335 40.483 29.8335Z" fill="white"/>
<path d="M40.483 27.0835H36.3504C35.9728 27.0835 35.6667 27.4939 35.6667 28.0002C35.6667 28.5064 35.9728 28.9168 36.3504 28.9168H40.483C40.8606 28.9168 41.1667 28.5064 41.1667 28.0002C41.1667 27.4939 40.8606 27.0835 40.483 27.0835Z" fill="white"/>
<path d="M31.6417 19.9605C31.4246 19.306 30.8487 18.8335 30.1667 18.8335C29.4838 18.8335 28.9012 19.3046 28.6847 19.9605H27.0238C26.8555 19.9605 26.6974 20.0474 26.5988 20.1945C26.5006 20.3414 26.4734 20.5307 26.5272 20.7024L27.3449 23.4168H32.9885L33.8062 20.7024C33.8599 20.5307 33.8328 20.3414 33.7346 20.1945C33.6359 20.0474 33.4778 19.9605 33.3095 19.9605H31.6417Z" fill="white"/>
<defs>
<filter id="filter0_d" x="0" y="0" width="64" height="64" filterUnits="userSpaceOnUse" color-interpolation-filters="sRGB">
<feFlood flood-opacity="0" result="BackgroundImageFix"/>
<feColorMatrix in="SourceAlpha" type="matrix" values="0 0 0 0 0 0 0 0 0 0 0 0 0 0 0 0 0 0 127 0"/>
<feOffset dy="4"/>
<feGaussianBlur stdDeviation="5.5"/>
<feColorMatrix type="matrix" values="0 0 0 0 0.095625 0 0 0 0 0.85 0 0 0 0 0.556016 0 0 0 0.4 0"/>
<feBlend mode="normal" in2="BackgroundImageFix" result="effect1_dropShadow"/>
<feBlend mode="normal" in="SourceGraphic" in2="effect1_dropShadow" result="shape"/>
</filter>
<linearGradient id="paint0_linear" x1="32" y1="7" x2="32" y2="49" gradientUnits="userSpaceOnUse">
<stop stop-color="#48DD5F"/>
<stop offset="1" stop-color="#46CDA2"/>
</linearGradient>
</defs>
</svg>
