<svg width="25" height="27" viewBox="0 0 25 27" fill="none" xmlns="http://www.w3.org/2000/svg">
<path fill-rule="evenodd" clip-rule="evenodd" d="M23.0085 8.52958L22.2305 7.17946C21.5723 6.03706 20.1136 5.64296 18.9696 6.29846V6.29846C18.4251 6.61924 17.7753 6.71025 17.1636 6.55142C16.5518 6.39259 16.0284 5.99696 15.7087 5.45178C15.5031 5.10525 15.3926 4.71055 15.3884 4.30761V4.30761C15.4069 3.66159 15.1632 3.03556 14.7127 2.57215C14.2622 2.10873 13.6434 1.84739 12.9971 1.84766H11.4296C10.7964 1.84765 10.1893 2.09995 9.74268 2.54874C9.29604 2.99753 9.04665 3.6058 9.0497 4.23896V4.23896C9.03093 5.54622 7.96578 6.59607 6.65839 6.59594C6.25545 6.59175 5.86075 6.48124 5.51423 6.27557V6.27557C4.37026 5.62008 2.91157 6.01418 2.25336 7.15658L1.41812 8.52958C0.760696 9.67055 1.14943 11.1283 2.28768 11.7904V11.7904C3.02756 12.2176 3.48335 13.007 3.48335 13.8614C3.48335 14.7157 3.02756 15.5052 2.28768 15.9323V15.9323C1.15088 16.59 0.761717 18.0442 1.41812 19.1818V19.1818L2.20759 20.5433C2.51599 21.0998 3.03344 21.5104 3.64542 21.6844C4.25741 21.8583 4.91348 21.7812 5.46846 21.4701V21.4701C6.01403 21.1517 6.66417 21.0645 7.27436 21.2278C7.88455 21.3911 8.40423 21.7914 8.71789 22.3396C8.92355 22.6862 9.03407 23.0809 9.03825 23.4838V23.4838C9.03825 24.8045 10.1089 25.8751 11.4296 25.8751H12.9971C14.3133 25.8751 15.3821 24.8115 15.3884 23.4953V23.4953C15.3853 22.8601 15.6363 22.2501 16.0854 21.801C16.5345 21.3518 17.1445 21.1009 17.7797 21.1039C18.1817 21.1147 18.5747 21.2248 18.9238 21.4243V21.4243C20.0648 22.0817 21.5226 21.693 22.1847 20.5547V20.5547L23.0085 19.1818C23.3274 18.6344 23.4149 17.9826 23.2517 17.3705C23.0885 16.7585 22.688 16.2368 22.1389 15.9209V15.9209C21.5899 15.605 21.1894 15.0833 21.0262 14.4712C20.863 13.8592 20.9505 13.2073 21.2694 12.66C21.4767 12.298 21.7769 11.9978 22.1389 11.7904V11.7904C23.2704 11.1287 23.6582 9.67943 23.0085 8.54102V8.54102V8.52958Z" stroke="#79828D" stroke-width="2" stroke-linecap="round" stroke-linejoin="round"/>
<ellipse cx="12.2189" cy="13.8611" rx="3.29519" ry="3.29519" stroke="#79828D" stroke-width="2" stroke-linecap="round" stroke-linejoin="round"/>
</svg>
