<svg width="19" height="16" viewBox="0 0 19 16" fill="none" xmlns="http://www.w3.org/2000/svg">
<path d="M10.4499 3.85106V0.949788C10.4499 0.761927 10.5057 0.578295 10.6101 0.422108C10.7145 0.26592 10.8628 0.144189 11.0364 0.0723028C11.2099 0.000416999 11.4009 -0.0183957 11.5852 0.0182431C11.7694 0.0548819 11.9387 0.145327 12.0715 0.278145L18.7215 6.92808C18.8098 7.01623 18.8798 7.12092 18.9276 7.23617C18.9754 7.35141 19 7.47496 19 7.59972C19 7.72449 18.9754 7.84803 18.9276 7.96328C18.8798 8.07852 18.8098 8.18322 18.7215 8.27136L12.0715 14.9213C11.9389 15.0546 11.7696 15.1454 11.5852 15.1823C11.4007 15.2192 11.2095 15.2005 11.0358 15.1286C10.862 15.0566 10.7136 14.9346 10.6093 14.7781C10.5049 14.6217 10.4495 14.4377 10.4499 14.2497V11.3085C10.1801 11.2895 9.91315 11.2809 9.64905 11.2809C4.49441 11.2809 1.82208 14.6743 1.70523 14.8244C1.58547 14.9828 1.41892 15.0995 1.22915 15.158C1.03939 15.2165 0.836037 15.2137 0.647894 15.1502C0.45916 15.0869 0.295078 14.9659 0.178825 14.8044C0.0625706 14.6428 1.90735e-05 14.4487 0 14.2497C0 5.58194 7.68162 4.10281 10.4499 3.85106ZM9.64905 9.38095C10.2637 9.38095 10.8954 9.4237 11.5253 9.5073C11.7535 9.5379 11.9629 9.65029 12.1146 9.82361C12.2662 9.99693 12.3498 10.2194 12.3499 10.4497V11.9564L16.7065 7.59972L12.3499 3.24306V4.74975C12.3499 5.27414 11.9024 5.69974 11.379 5.69974C10.5145 5.69974 3.67076 5.89069 2.18403 11.8034C3.75531 10.6463 6.25094 9.38095 9.64905 9.38095Z" fill="#5C6A80"/>
</svg>
