<svg width="18" height="19" viewBox="0 0 18 19" fill="none" xmlns="http://www.w3.org/2000/svg">
<path d="M9.08152 16.9094C13.0516 16.9094 16.2815 13.6113 16.2815 9.55746C16.2815 5.50363 13.0516 2.20557 9.08152 2.20557C5.11148 2.20557 1.88159 5.50363 1.88159 9.55746C1.88159 13.6113 5.11148 16.9094 9.08152 16.9094ZM11.5965 7.35189C12.1897 7.35189 12.6714 7.84374 12.6714 8.44953C12.6714 9.05533 12.1897 9.54717 11.5965 9.54717C11.0032 9.54717 10.5215 9.05533 10.5215 8.44953C10.5215 7.84374 11.0032 7.35189 11.5965 7.35189ZM8.49977 12.4387C8.88065 12.5173 9.28096 12.5173 9.66328 12.4387C9.84544 12.4004 10.0269 12.3424 10.2033 12.2674C10.3718 12.1939 10.5374 12.1027 10.6921 11.9968C10.8419 11.8924 10.9852 11.7719 11.1177 11.6373C11.2494 11.5035 11.3675 11.3572 11.4697 11.2021L12.6635 12.0233C12.5087 12.2578 12.3309 12.4784 12.135 12.6783C11.9399 12.8776 11.7246 13.0592 11.4978 13.215C11.266 13.3753 11.019 13.5113 10.7627 13.6223C10.4978 13.7355 10.2256 13.8223 9.95056 13.8796C9.66544 13.9385 9.3724 13.9686 9.08152 13.9686C8.79065 13.9686 8.49761 13.9385 8.21249 13.8789C7.93674 13.8223 7.66458 13.7355 7.40106 13.6223C7.14402 13.5113 6.89707 13.3746 6.66595 13.215C6.43843 13.0577 6.22315 12.8768 6.02659 12.6761C5.83147 12.4776 5.65292 12.2578 5.49884 12.0226L6.69259 11.2013C6.79555 11.3565 6.91362 11.5028 7.04394 11.6351C7.17714 11.7719 7.32042 11.8924 7.47162 11.9968C7.62498 12.1027 7.78986 12.1939 7.96049 12.2674C8.13617 12.3424 8.31689 12.4004 8.49977 12.4387ZM6.56155 7.35189C7.1577 7.35189 7.64154 7.84594 7.64154 8.45468C7.64154 9.06342 7.1577 9.55746 6.56155 9.55746C5.96539 9.55746 5.48156 9.06342 5.48156 8.45468C5.48156 7.84594 5.96539 7.35189 6.56155 7.35189Z" fill="#646464"/>
</svg>
