<svg width="152" height="305" viewBox="0 0 152 305" fill="none" xmlns="http://www.w3.org/2000/svg">
<g clip-path="url(#clip0)">
<path d="M105.99 75.3296C106.73 79.0496 107.52 82.6996 108.41 86.3496C109.28 89.9996 110.17 93.6496 111.14 97.2796L112.62 102.72L112.81 103.41C112.9 103.71 113 104.01 113.11 104.32C113.34 104.94 113.64 105.59 114.09 106.25C114.53 106.91 115.14 107.6 115.96 108.15C116.77 108.7 117.78 109.05 118.69 109.14C120.55 109.29 121.89 108.73 122.98 108.19C124.07 107.62 124.95 106.96 125.76 106.27C127.37 104.86 128.64 103.38 129.83 101.68L127.05 99.1796C125.69 100.21 124.19 101.26 122.75 102.03C122.04 102.42 121.32 102.75 120.69 102.92C120.08 103.12 119.54 103.09 119.53 102.99C119.52 102.95 119.63 102.95 119.68 102.96C119.74 102.96 119.73 102.93 119.68 102.79C119.64 102.66 119.56 102.44 119.5 102.18L119.27 101.08L118.1 95.6196L115.75 84.6996C114.99 81.0596 114.17 77.4096 113.38 73.8096L105.99 75.3296Z" fill="#FFC3BD"/>
<path d="M109.34 63.8997C117.87 70.4297 117.53 82.7397 117.53 82.7397L102.27 86.3897C102.27 86.3897 97.5901 74.0197 99.4901 69.4897C101.47 64.7597 104.53 60.2297 109.34 63.8997Z" fill="#263238"/>
<path d="M126.27 99.3698L131.88 93.7598L134.91 102.54C134.91 102.54 130.17 105.1 125.64 102.69L126.27 99.3698Z" fill="#FFC3BD"/>
<path d="M139.64 92.8999L140.67 99.8299L134.9 102.54L131.87 93.7599L139.64 92.8999Z" fill="#FFC3BD"/>
<path d="M59.9 296.08L68.48 296.92L77.41 276.5L68.83 275.66L59.9 296.08Z" fill="#FFC3BD"/>
<path d="M4.6201 265.89L11.0701 271.94L24.9801 256.65L18.5401 250.59L4.6201 265.89Z" fill="#FFC3BD"/>
<path d="M14.04 269.03L9.20005 260.3C9.02005 259.98 8.66004 259.85 8.33004 259.97L0.870049 262.81C0.10005 263.1 -0.239953 264.1 0.180047 264.82C1.92005 267.83 2.91005 269.2 5.04005 273.04C6.35005 275.4 8.90005 280.82 10.71 284.08C12.48 287.27 15.84 285.72 15.38 284.21C13.31 277.4 13.7001 273.6 14.2801 270.6C14.3901 270.06 14.3 269.5 14.04 269.03Z" fill="#263238"/>
<path d="M69.6201 294.27H59.0801C58.7001 294.27 58.3501 294.54 58.2501 294.91L55.9601 303.25C55.7201 304.11 56.3601 304.91 57.2501 304.92C60.9601 304.95 62.7201 304.94 67.3601 304.94C70.2101 304.94 77.5901 304.94 81.5201 304.94C85.3701 304.94 86.1801 301.05 84.5801 300.69C77.4401 299.11 73.3201 296.93 71.1101 294.85C70.7101 294.47 70.1801 294.27 69.6201 294.27Z" fill="#263238"/>
<path opacity="0.2" d="M77.4 276.5L72.8 287.03H63.85L68.82 275.66L77.4 276.5Z" fill="black"/>
<path opacity="0.2" d="M18.5301 250.6L24.9801 256.65L17.8001 264.53L11.3601 258.48L18.5301 250.6Z" fill="black"/>
<path d="M106.76 62.64C106.76 62.64 110.62 64.34 97.6801 115.54C83.4201 114.31 68.6801 113.03 61.7401 112.43C63.6101 97.85 64.4101 88.83 60.0101 58.21C60.0101 58.21 67.6801 57.22 75.4501 57.52C81.5201 57.75 86.5001 57.99 91.7701 58.93C98.7201 60.17 106.76 62.64 106.76 62.64Z" fill="#263238"/>
<path d="M75.44 57.2598C75.44 57.2598 73.4 57.2998 70.99 57.2998C69.54 59.5298 74.25 69.2998 82.03 75.6898C83.9 69.8598 88.28 66.6298 88.28 66.6298L75.44 57.2598Z" fill="white"/>
<path d="M91.7601 58.7998C91.7601 58.7998 92.6701 58.9298 94.8401 59.4298C96.2901 61.6598 98.7401 71.1898 94.4701 76.0498C92.8101 70.0498 88.2801 66.6398 88.2801 66.6398L91.7601 58.7998Z" fill="white"/>
<path d="M78.6501 39.2798C79.2301 44.6198 79.4201 54.3298 75.4401 57.5198C75.4401 57.5198 79.6901 61.8598 88.2801 66.6398C94.5301 62.3198 91.7601 58.9298 91.7601 58.9298C86.0201 57.0198 86.5501 52.6898 87.9201 48.6998L78.6501 39.2798Z" fill="#FFC3BD"/>
<path d="M88.4301 66.66C88.4301 66.66 83.1601 60.92 80.4401 62.02C77.7201 63.12 79.8201 65.09 80.0601 66.93C80.3001 68.78 79.0001 73.7 82.6501 72.42C86.3001 71.15 88.4301 66.66 88.4301 66.66Z" fill="#2DCC89"/>
<path d="M88.6401 66.5499C88.6401 66.5499 91.1301 62.1499 93.8201 62.7299C96.5101 63.3199 94.9101 64.8599 94.6701 66.5199C94.3601 68.6499 96.6101 72.7199 93.3601 71.5699C90.2001 70.4499 88.6401 66.5499 88.6401 66.5499Z" fill="#2DCC89"/>
<g opacity="0.2">
<path opacity="0.2" d="M90.0101 65.5898C89.9801 66.8198 89.8101 67.6698 89.5101 68.1798C88.9401 67.2698 88.6501 66.5498 88.6501 66.5498C88.6501 66.5498 89.1301 65.6898 89.9201 64.7798C89.9901 64.9798 90.0201 65.2398 90.0101 65.5898Z" fill="black"/>
<path opacity="0.2" d="M86.51 64.8096C87.64 65.7996 88.42 66.6596 88.42 66.6596C88.42 66.6596 88.06 67.4096 87.39 68.3896C86.94 68.0096 86.58 67.3196 86.42 66.1196C86.33 65.4996 86.38 65.0896 86.51 64.8096Z" fill="black"/>
</g>
<path d="M88.4901 68.4698C89.2301 68.4698 89.6901 67.6598 89.7501 65.7198C89.8001 63.7898 88.3201 64.8598 88.3201 64.8598C88.3201 64.8598 86.3401 63.8298 86.6801 66.1798C86.9401 67.9998 87.7301 68.4598 88.4901 68.4698Z" fill="#2DCC89"/>
<path opacity="0.2" d="M82.43 43.1196L87.92 48.6896C87.59 49.6296 87.32 50.5996 87.17 51.5396C84.96 51.0196 81.76 48.7296 81.73 46.3596C81.71 45.1896 82.2 43.6496 82.43 43.1196Z" fill="black"/>
<path d="M87.1401 21.23C87.1401 21.23 93.1201 29.54 94.1101 33.27C98.1901 35.64 99.0201 23.94 96.8501 16.71C90.1501 20.9 87.1401 21.23 87.1401 21.23Z" fill="#263238"/>
<path d="M73.9501 30.9298C76.1801 39.4598 76.9401 43.1198 82.1701 46.6898C90.0401 52.0698 100.03 47.4698 100.4 38.4398C100.73 30.3198 97.0301 17.7298 87.9001 15.9598C78.9101 14.2098 71.7201 22.3998 73.9501 30.9298Z" fill="#FFC3BD"/>
<path d="M69.31 27.5298C69.31 27.5298 73.6 34.4698 74.17 37.4898C77.28 39.6098 78.59 30.3498 77.28 24.4798C75.86 19.3098 69.31 27.5298 69.31 27.5298Z" fill="#263238"/>
<path d="M71.02 22.6898C72.26 23.6298 73.57 20.1598 72.33 17.4998C74.7 17.6498 77.55 16.2398 76.95 13.9498C81.62 15.5098 83.35 10.7598 82.81 7.47978C82.16 3.50978 78.68 2.62978 76.63 3.67978C76.59 1.88978 72.11 -1.84022 70.39 1.07978C67.2 -0.05022 62.06 0.299779 62.16 4.21978C60.05 4.28978 53.83 6.66978 56.12 12.2698C53.37 12.4298 51.89 15.9298 53.41 18.5598C49.89 20.6198 51.19 24.2098 52.53 25.4598C51.26 28.0998 55.12 32.0198 57.16 31.5498C58.72 33.9498 61.11 35.7398 62.68 33.6998C65.72 35.9098 69.12 33.1098 68.35 30.9398C71.81 30.3898 75.28 24.7098 71.02 22.6898Z" fill="#263238"/>
<path d="M65.9401 14.3C63.7001 18.04 63.8901 22.27 66.3601 23.75C68.8301 25.23 72.6501 23.4 74.8901 19.66C77.1301 15.92 76.9401 11.69 74.4701 10.21C72.0001 8.72996 68.1801 10.56 65.9401 14.3Z" fill="#2DCC89"/>
<path d="M86.7401 20.1899C86.8801 21.2599 89.8301 20.9899 90.6801 19.0999C91.9001 20.3799 94.7701 21.0399 95.7501 19.6499C97.4101 22.7699 100.73 21.9499 101.6 20.4499C102.47 18.9499 103.03 16.1899 101.31 15.6499C102.31 14.7799 102.01 10.7399 99.3901 11.2399C98.2901 9.07993 95.2701 6.62993 93.0801 8.53993C91.8901 7.49993 87.1001 5.45993 85.1401 9.27993C83.5401 7.95993 80.7201 8.85994 80.0401 10.8799C76.9201 10.0699 75.5801 12.4299 75.5901 13.6999C73.3801 14.2999 73.2301 18.1199 74.6201 18.9399C74.1001 20.8699 74.3701 22.9399 76.4101 22.7699C76.8001 25.3599 80.2801 25.7699 81.1001 24.3499C83.3001 25.8299 87.9101 23.3099 86.7401 20.1899Z" fill="#263238"/>
<path d="M92 12.8397C89.47 9.33971 80.24 7.87971 72.25 13.1297C65.05 17.8597 65.52 28.8397 71.24 28.2597C76.96 27.6797 82.63 20.9597 82.63 20.9597L92 12.8397Z" fill="#263238"/>
<path d="M73.25 38.6297C74.09 40.2497 75.6 41.3397 77.04 41.7697C79.2 42.4197 80.33 40.4997 79.77 38.4297C79.26 36.5697 77.53 33.9897 75.34 34.2497C73.17 34.4997 72.29 36.7797 73.25 38.6297Z" fill="#FFC3BD"/>
<path d="M97.68 115.54C97.68 115.54 109.84 169.34 101.72 207.26C96.28 232.66 76.67 283.98 76.67 283.98L61.34 283.59C61.34 283.59 76.18 229.74 79.25 208.56C84.5 172.33 71.35 113.27 71.35 113.27L97.68 115.54Z" fill="#2DCC89"/>
<path opacity="0.2" d="M83.6601 126.4L75.9901 138.49C77.9401 151.03 79.8801 166.71 80.3801 181.8C91.1601 162.5 86.0501 136.62 83.6601 126.4Z" fill="black"/>
<path d="M78.8401 284.77L59.9001 284.29L60.9901 278.47L80.3201 279.38L78.8401 284.77Z" fill="#263238"/>
<path d="M89.8201 114.96C89.8201 114.96 82.6901 172.01 67.2201 203.16C54.7301 228.32 21.4001 264.13 21.4001 264.13L12.8801 255.35C12.8801 255.35 35.3901 216.43 44.6801 199.72C67.4401 158.74 48.8401 127.47 61.7401 112.43L89.8201 114.96Z" fill="#2DCC89"/>
<path d="M22.2601 265.31L11.2601 254.59L14.9101 249.63L26.5801 261.27L22.2601 265.31Z" fill="#263238"/>
<path d="M61.3801 110.27L59.48 113.35C59.33 113.59 59.6101 113.87 60.0201 113.9L97.72 117.16C98.04 117.19 98.33 117.05 98.36 116.85L98.9601 113.66C99.0001 113.44 98.74 113.23 98.38 113.2L61.98 110.05C61.7201 110.03 61.48 110.12 61.3801 110.27Z" fill="#2DCC89"/>
<path opacity="0.5" d="M61.3801 110.27L59.48 113.35C59.33 113.59 59.6101 113.87 60.0201 113.9L97.72 117.16C98.04 117.19 98.33 117.05 98.36 116.85L98.9601 113.66C99.0001 113.44 98.74 113.23 98.38 113.2L61.98 110.05C61.7201 110.03 61.48 110.12 61.3801 110.27Z" fill="white"/>
<path d="M65.9201 114.76L64.9501 114.68C64.7601 114.66 64.6201 114.55 64.6401 114.43L65.4601 110.29C65.4801 110.17 65.6601 110.08 65.8601 110.1L66.8301 110.18C67.0201 110.2 67.1601 110.31 67.1401 110.43L66.3201 114.57C66.2901 114.7 66.1101 114.78 65.9201 114.76Z" fill="#2DCC89"/>
<path d="M94.9501 117.27L93.9801 117.19C93.7901 117.17 93.6501 117.06 93.6701 116.94L94.4901 112.8C94.5101 112.68 94.6901 112.59 94.8901 112.61L95.8601 112.69C96.0501 112.71 96.1901 112.82 96.1701 112.94L95.3501 117.08C95.3201 117.21 95.1401 117.29 94.9501 117.27Z" fill="#2DCC89"/>
<path d="M80.4301 116.02L79.4601 115.94C79.2701 115.92 79.1301 115.81 79.1501 115.69L79.9701 111.55C79.9901 111.43 80.1701 111.34 80.3701 111.36L81.3401 111.44C81.5301 111.46 81.6701 111.57 81.6501 111.69L80.8301 115.83C80.8101 115.95 80.6301 116.04 80.4301 116.02Z" fill="#2DCC89"/>
<path d="M88.3901 30.6399C88.5301 31.3399 89.0101 31.8399 89.4701 31.7499C89.9301 31.6599 90.1901 31.0199 90.0501 30.3099C89.9101 29.6099 89.4301 29.1099 88.9701 29.1999C88.5101 29.2899 88.2501 29.9399 88.3901 30.6399Z" fill="#263238"/>
<path d="M96.3406 29.0753C96.2021 28.3708 96.4632 27.7264 96.9238 27.6358C97.3845 27.5452 97.8701 28.0429 98.0086 28.7474C98.1471 29.4519 97.886 30.0964 97.4254 30.1869C96.9648 30.2775 96.4791 29.7798 96.3406 29.0753Z" fill="#263238"/>
<path d="M96.7301 27.7199L98.3201 26.8999C98.3201 26.8999 97.7101 28.3899 96.7301 27.7199Z" fill="#263238"/>
<path d="M93.61 30.8296C93.61 30.8296 95.4 33.6196 97 34.8196C96.24 35.8696 94.59 35.7796 94.59 35.7796L93.61 30.8296Z" fill="#ED847E"/>
<path d="M83.6201 27.9096C83.5601 27.9096 83.5001 27.8896 83.4401 27.8596C83.2701 27.7596 83.2201 27.5496 83.3201 27.3796C84.5001 25.4196 86.4101 25.3296 86.4901 25.3296C86.6901 25.3396 86.8401 25.4696 86.8501 25.6696C86.8601 25.8596 86.7101 26.0196 86.5101 26.0296C86.4401 26.0296 84.9001 26.1196 83.9101 27.7396C83.8501 27.8496 83.7401 27.9096 83.6201 27.9096Z" fill="#263238"/>
<path d="M98.55 25.1C98.49 25.1 98.43 25.09 98.38 25.06C96.71 24.13 95.29 24.85 95.28 24.86C95.11 24.95 94.9 24.88 94.81 24.71C94.72 24.54 94.79 24.33 94.96 24.24C95.03 24.2 96.73 23.33 98.73 24.45C98.9 24.54 98.96 24.76 98.86 24.93C98.79 25.03 98.67 25.1 98.55 25.1Z" fill="#263238"/>
<path d="M58.48 66.3799C57.8 67.0399 57.33 67.5499 56.8 68.1499C56.29 68.7299 55.8 69.3199 55.32 69.9099C54.36 71.0999 53.46 72.3199 52.61 73.5699C50.93 76.0899 49.42 78.7299 48.14 81.4799C46.84 84.2199 45.83 87.1099 45.02 90.0499C44.64 91.5299 44.29 93.0099 44.03 94.5199C43.68 96.0999 43.55 98.6699 44.71 100.84C45.27 101.93 46.09 102.83 46.95 103.5C47.81 104.17 48.7 104.64 49.56 105C51.29 105.7 52.94 106 54.53 106.18C57.71 106.51 60.71 106.39 63.66 106.06C69.55 105.39 75.17 104.15 80.76 102.43L79.85 98.7999C77.13 99.2499 74.33 99.6699 71.56 99.9599C68.79 100.28 66.02 100.51 63.29 100.57C60.57 100.61 57.85 100.57 55.39 100.14C54.17 99.9199 53.01 99.5999 52.13 99.1699C51.23 98.7299 50.77 98.2199 50.66 97.8599C50.59 97.6699 50.54 97.4599 50.54 97.1399C50.54 96.9799 50.56 96.7999 50.58 96.5999C50.62 96.3899 50.64 96.2099 50.74 95.8499C51.02 94.5599 51.39 93.2899 51.78 92.0399C52.59 89.5199 53.64 87.0899 54.82 84.7199C56 82.3399 57.38 80.0599 58.9 77.8799C59.65 76.7799 60.44 75.7099 61.26 74.6799C61.67 74.1599 62.09 73.6599 62.52 73.1699C62.92 72.6899 63.41 72.1499 63.74 71.8099L58.48 66.3799Z" fill="#FFC3BD"/>
<path d="M77.57 99.3496L84.58 95.6396L84.89 104.92C84.89 104.92 79.94 105.23 77.03 102.95L77.57 99.3496Z" fill="#FFC3BD"/>
<path d="M89.85 149.22L84.07 86.41L96.42 76.95L134.12 73.48L140.67 144.54L89.85 149.22Z" fill="#2DCC89"/>
<path opacity="0.8" d="M89.85 149.22L84.07 86.41L96.42 76.95L134.12 73.48L140.67 144.54L89.85 149.22Z" fill="white"/>
<path d="M84.07 86.4102L96.42 76.9502L93.18 88.2702L84.07 86.4102Z" fill="#2DCC89"/>
<path d="M136.25 155.52C127.745 155.52 120.85 148.625 120.85 140.12C120.85 131.615 127.745 124.72 136.25 124.72C144.755 124.72 151.65 131.615 151.65 140.12C151.65 148.625 144.755 155.52 136.25 155.52Z" fill="#2DCC89"/>
<path d="M128.639 149.758C123.317 145.553 122.411 137.831 126.615 132.509C130.819 127.187 138.541 126.281 143.863 130.485C149.185 134.689 150.091 142.412 145.887 147.734C141.683 153.056 133.96 153.962 128.639 149.758Z" fill="white"/>
<path d="M128.66 139.05L134.08 138.41L133.45 132.99L137.33 132.54L137.97 137.95L143.38 137.32L143.84 141.2L138.42 141.84L139.06 147.26L135.17 147.71L134.54 142.29L129.12 142.93L128.66 139.05Z" fill="#2DCC89"/>
<path opacity="0.25" d="M91.0919 117.372C91.3449 116.039 92.0005 115.288 92.6071 115.431C93.2137 115.575 93.7605 116.49 94.1169 117.685C94.3454 118.456 94.5086 119.351 94.7997 119.991C95.4226 121.363 96.4618 121.082 97.1364 119.861C97.8111 118.639 98.1973 116.718 98.5047 114.824C98.9291 112.211 99.5276 108.977 100.697 108.938C101.532 108.905 102.183 110.636 102.621 112.335C103.059 114.033 103.464 115.974 104.212 116.856C105.297 118.143 106.644 116.562 107.381 114.262C108.118 111.962 108.45 109.075 108.978 106.455C109.187 105.423 109.459 104.358 109.9 103.927C110.379 103.457 110.937 103.862 111.369 104.554C111.802 105.24 112.147 106.188 112.555 106.958C114.304 110.257 117.155 109.382 118.504 105.136C118.706 104.502 118.885 103.797 119.171 103.391C119.677 102.679 120.327 103.182 120.825 103.927C121.785 105.358 122.501 107.572 123.442 109.068C124.383 110.564 125.76 111.152 126.57 109.264C127.28 107.612 127.438 104.378 128.409 103.934C129.68 103.352 130.381 108.428 131.674 108.271C132.28 108.2 132.743 106.952 133.039 105.678C133.336 104.404 133.551 102.973 133.999 102V129H90.9994L91.0919 117.372Z" fill="url(#paint0_linear)"/>
<path d="M90.9994 118.262C91.247 116.852 91.8888 116.058 92.4826 116.21C93.0764 116.362 93.6116 117.329 93.9604 118.594C94.1841 119.41 94.3438 120.356 94.6288 121.034C95.2385 122.485 96.2557 122.188 96.9161 120.896C97.5765 119.603 97.9546 117.571 98.2555 115.567C98.6709 112.802 99.2567 109.381 100.402 109.34C101.219 109.305 101.856 111.137 102.284 112.934C102.713 114.731 103.11 116.783 103.842 117.716C104.904 119.078 106.222 117.405 106.944 114.973C107.666 112.54 107.991 109.485 108.507 106.714C108.712 105.622 108.978 104.495 109.41 104.039C109.878 103.541 110.424 103.97 110.848 104.702C111.271 105.428 111.609 106.43 112.009 107.246C113.721 110.736 116.511 109.81 117.832 105.317C118.029 104.647 118.205 103.901 118.485 103.472C118.98 102.719 119.616 103.251 120.104 104.039C121.044 105.552 121.744 107.895 122.665 109.478C123.586 111.061 124.934 111.683 125.727 109.685C126.422 107.937 126.577 104.516 127.527 104.046C128.771 103.431 129.458 108.801 130.723 108.635C131.317 108.559 131.769 107.239 132.059 105.891C132.35 104.543 132.56 103.03 132.999 102" stroke="#2DCC89" stroke-miterlimit="10"/>
<path d="M88.8601 96.1897L87.8001 103.13L84.9001 104.92L84.5801 95.6396L88.8601 96.1897Z" fill="#FFC3BD"/>
<path d="M60.0101 58.1997C55.6001 58.9797 49.4301 71.6197 49.4301 71.6197L60.5301 81.6697C60.5301 81.6697 69.3601 72.0297 68.8901 66.2897C68.5001 61.4197 65.6201 57.2097 60.0101 58.1997Z" fill="#263238"/>
<path d="M15.7401 273.73C15.6301 273.73 15.5101 273.71 15.4001 273.67C14.3501 273.31 13.6501 271.36 13.3401 270.23C13.3201 270.16 13.3401 270.09 13.4001 270.05C13.4501 270.01 13.5301 270 13.5901 270.03C13.9101 270.2 16.7301 271.7 16.8201 272.82C16.8301 272.99 16.7901 273.24 16.5201 273.44C16.2601 273.63 16.0001 273.73 15.7401 273.73ZM13.7901 270.54C14.2801 272.1 14.9101 273.13 15.5101 273.34C15.7701 273.43 16.0301 273.37 16.3001 273.16C16.4601 273.04 16.4701 272.92 16.4601 272.85C16.4101 272.16 14.7601 271.09 13.7901 270.54Z" fill="#2DCC89"/>
<path d="M16.18 270.98C15.18 270.98 13.9501 270.66 13.4201 270.33C13.3701 270.3 13.34 270.24 13.34 270.18C13.34 270.12 13.38 270.06 13.43 270.03C13.52 269.98 15.75 268.75 16.95 269.18C17.26 269.29 17.4801 269.5 17.6101 269.8C17.8001 270.27 17.59 270.54 17.45 270.66C17.17 270.89 16.71 270.98 16.18 270.98ZM13.8901 270.18C14.8401 270.59 16.6901 270.84 17.2201 270.4C17.3101 270.33 17.3901 270.21 17.2801 269.93C17.2001 269.72 17.05 269.58 16.83 269.51C16.01 269.22 14.5201 269.87 13.8901 270.18Z" fill="#2DCC89"/>
<path d="M74.3001 295.97C73.2901 295.97 72.1901 295.77 71.4201 295.6C71.3501 295.58 71.2901 295.52 71.2801 295.45C71.2701 295.38 71.3101 295.3 71.3801 295.27C71.8101 295.07 75.6401 293.3 76.6001 293.95C76.7201 294.03 76.8701 294.19 76.8501 294.49C76.8301 294.9 76.6501 295.23 76.3301 295.48C75.8501 295.85 75.1001 295.97 74.3001 295.97ZM72.0201 295.37C73.1601 295.58 75.2501 295.86 76.1201 295.21C76.3601 295.03 76.4801 294.79 76.5001 294.48C76.5101 294.34 76.4501 294.28 76.4001 294.25C75.8701 293.88 73.6101 294.67 72.0201 295.37Z" fill="#2DCC89"/>
<path d="M71.46 295.61C71.42 295.61 71.38 295.6 71.35 295.57C71.3 295.53 71.28 295.46 71.29 295.4C71.33 295.24 72.19 291.47 74.27 291.71C74.79 291.77 74.93 292.03 74.96 292.24C75.09 293.2 72.68 295.14 71.53 295.61C71.5 295.61 71.48 295.61 71.46 295.61ZM74.08 292.05C72.75 292.05 71.98 294.24 71.73 295.12C72.98 294.47 74.7 292.9 74.62 292.28C74.61 292.23 74.6 292.1 74.24 292.05C74.17 292.05 74.12 292.05 74.08 292.05Z" fill="#2DCC89"/>
<path d="M88.7801 29.28L90.3701 28.46C90.3701 28.46 89.7601 29.95 88.7801 29.28Z" fill="#263238"/>
</g>
<defs>
<linearGradient id="paint0_linear" x1="112.499" y1="102" x2="112.499" y2="129" gradientUnits="userSpaceOnUse">
<stop stop-color="#49DA9D"/>
<stop offset="1" stop-color="#49DA9D" stop-opacity="0"/>
</linearGradient>
<clipPath id="clip0">
<rect width="151.65" height="304.94" fill="white" transform="matrix(-1 0 0 1 151.65 0)"/>
</clipPath>
</defs>
</svg>
